<svg width="64" height="64" viewBox="0 0 64 64" fill="none" xmlns="http://www.w3.org/2000/svg">
<path d="M58.6667 53.3333H5.33333V48H8V29.416C8 16.1147 18.7467 5.33333 32 5.33333C45.2533 5.33333 56 16.1147 56 29.416V48H58.6667V53.3333ZM13.3333 48H50.6667V29.416C50.6667 19.0613 42.3093 10.6667 32 10.6667C21.6907 10.6667 13.3333 19.0613 13.3333 29.416V48ZM25.3333 56H38.6667C38.6667 57.7681 37.9643 59.4638 36.714 60.714C35.4638 61.9643 33.7681 62.6667 32 62.6667C30.2319 62.6667 28.5362 61.9643 27.286 60.714C26.0357 59.4638 25.3333 57.7681 25.3333 56Z" fill="url(#paint0_linear_1_53)"/>
<defs>
<linearGradient id="paint0_linear_1_53" x1="-4.16162" y1="38.0234" x2="64.5253" y2="38.0234" gradientUnits="userSpaceOnUse">
<stop stop-color="#CE722C"/>
<stop offset="0.54096" stop-color="white"/>
<stop offset="1" stop-color="#CE722C"/>
</linearGradient>
</defs>
</svg>
